<svg width="22" height="20" viewBox="0 0 22 20" fill="none" xmlns="http://www.w3.org/2000/svg">
<path fill-rule="evenodd" clip-rule="evenodd" d="M0 17C0 18.6569 1.34315 20 3 20H19C20.6569 20 22 18.6569 22 17V6.97565C22 5.3188 20.6569 3.97565 19 3.97565H16.7796L16.3501 2.2682C16.0147 0.934746 14.8158 0 13.4408 0H8.55924C7.18424 0 5.98526 0.934746 5.64986 2.2682L5.22038 3.97565H3C1.34315 3.97565 0 5.3188 0 6.97565V17ZM3 18C2.44772 18 2 17.5523 2 17V6.97565C2 6.42337 2.44771 5.97565 3 5.97565H5.68815C6.32981 5.97565 6.88934 5.53944 7.04586 4.91716L7.58944 2.75607C7.70125 2.31158 8.1009 2 8.55924 2H13.4408C13.8991 2 14.2988 2.31158 14.4106 2.75607L14.9541 4.91716C15.1107 5.53944 15.6702 5.97565 16.3118 5.97565H19C19.5523 5.97565 20 6.42337 20 6.97565V17C20 17.5523 19.5523 18 19 18H3ZM11 10C12.1046 10 13 10.8954 13 12C13 13.1046 12.1046 14 11 14C9.89543 14 9 13.1046 9 12C9 10.8954 9.89543 10 11 10ZM11 8C13.2091 8 15 9.79086 15 12C15 14.2091 13.2091 16 11 16C8.79086 16 7 14.2091 7 12C7 9.79086 8.79086 8 11 8ZM17 9.03125C17.5523 9.03125 18 8.58354 18 8.03125C18 7.47896 17.5523 7.03125 17 7.03125C16.4477 7.03125 16 7.47896 16 8.03125C16 8.58354 16.4477 9.03125 17 9.03125Z" fill="white"/>
<rect x="5.40625" y="3.96875" width="12" height="2" fill="white"/>
</svg>
