<svg width="64" height="64" viewBox="0 0 64 64" fill="none" xmlns="http://www.w3.org/2000/svg">
<path fill-rule="evenodd" clip-rule="evenodd" d="M18.6874 18.6857C19.7289 17.6444 21.4173 17.6445 22.4587 18.686L32.001 28.2296L41.5432 18.686C42.5846 17.6445 44.273 17.6444 45.3145 18.6857C46.356 19.727 46.3561 21.4155 45.3147 22.4569L35.7719 32.001L45.3138 41.5442C46.3551 42.5857 46.355 44.2741 45.3135 45.3154C44.2721 46.3568 42.5836 46.3567 41.5423 45.3152L32.001 35.7725L22.4596 45.3152C21.4183 46.3567 19.7298 46.3568 18.6884 45.3154C17.6469 44.2741 17.6468 42.5857 18.6881 41.5442L28.23 32.001L18.6872 22.4569C17.6458 21.4155 17.646 19.727 18.6874 18.6857Z" fill="#7C7E92" fill-opacity="0.56"/>
<circle cx="32" cy="32" r="29.335" stroke="#7C7E92" stroke-opacity="0.56" stroke-width="5.33"/>
</svg>
