<svg width="18" height="20" viewBox="0 0 18 20" fill="none" xmlns="http://www.w3.org/2000/svg">
<path fill-rule="evenodd" clip-rule="evenodd" d="M3 20H15C16.6569 20 18 18.6569 18 17V6.41421C18 5.61857 17.6839 4.8555 17.1213 4.29289L13.7071 0.87868C13.1445 0.316072 12.3814 0 11.5858 0H3C1.34315 0 0 1.34315 0 3V17C0 18.6569 1.34315 20 3 20ZM2 3C2 2.44772 2.44772 2 3 2H10V6.6C10 7.3732 10.6268 8 11.4 8H16V17C16 17.5523 15.5523 18 15 18H3C2.44772 18 2 17.5523 2 17V3ZM15.9102 6C15.861 5.89201 15.7926 5.79262 15.7071 5.70711L12.2929 2.29289C12.2074 2.20738 12.108 2.13896 12 2.08982V6H15.9102Z" fill="white"/>
</svg>
